<?xml version="1.0" encoding="UTF-8"?>
<svg width="154px" height="56px" viewBox="0 0 154 56" version="1.1" xmlns="http://www.w3.org/2000/svg" xmlns:xlink="http://www.w3.org/1999/xlink">
    <title>6968DB13-3C76-4C98-ABBA-5BD2DCAF454C</title>
    <g id="login" stroke="none" stroke-width="1" fill="none" fill-rule="evenodd">
        <g id="login_default" transform="translate(-523.000000, -177.000000)" fill="#23B4C3">
            <g id="Group-2" transform="translate(483.000000, 137.000000)">
                <g id="brand" transform="translate(40.000000, 40.000000)">
                    <path d="M5.72084333,55.8637078 C2.56127667,55.8637078 0,53.312 0,50.1642374 C0,47.0162192 2.56127667,44.4645114 5.72084333,44.4645114 C8.88041,44.4645114 11.4416867,47.0162192 11.4416867,50.1642374 C11.4416867,53.312 8.88041,55.8637078 5.72084333,55.8637078 L5.72084333,55.8637078 Z M45.7670033,22.798137 C45.7670033,10.2070868 35.52164,0 22.8833733,0 C10.2451067,0 0,10.2070868 0,22.798137 C0,35.3889315 10.2451067,45.596274 22.8833733,45.596274 C35.52164,45.596274 45.7670033,35.3889315 45.7670033,22.798137 L45.7670033,22.798137 Z M34.32506,22.798137 C34.32506,29.0936621 29.2027633,34.1973333 22.8833733,34.1973333 C16.56424,34.1973333 11.4419433,29.0936621 11.4419433,22.798137 C11.4419433,16.5026119 16.56424,11.3989406 22.8833733,11.3989406 C29.2027633,11.3989406 34.32506,16.5026119 34.32506,22.798137 L34.32506,22.798137 Z M65.2585267,27.9010411 L65.2585267,18.87021 L70.1752333,18.87021 C73.2788467,18.87021 75.1840833,20.7069589 75.1840833,23.4008402 C75.1840833,26.0949772 73.2788467,27.9010411 70.1752333,27.9010411 L65.2585267,27.9010411 Z M70.48272,29.6462466 C74.5080233,29.6462466 77.1506633,26.9827945 77.1506633,23.4008402 C77.1506633,19.8191416 74.5080233,17.1250046 70.48272,17.1250046 L63.29169,17.1250046 L63.29169,38.830758 L65.2585267,38.830758 L65.2585267,29.6462466 L70.48272,29.6462466 Z M85.2017833,39.2286393 C89.25763,39.2286393 92.4844433,36.0752511 92.4844433,31.5443653 C92.4844433,26.9523653 89.25763,23.860347 85.2017833,23.860347 C81.0838233,23.860347 77.9188667,26.9523653 77.9188667,31.5443653 C77.9188667,36.0752511 81.1451667,39.2286393 85.2017833,39.2286393 L85.2017833,39.2286393 Z M79.7933033,31.5443653 C79.7933033,27.7174429 82.3435433,25.5134977 85.2017833,25.5134977 C88.0592533,25.5134977 90.6100067,27.7174429 90.6100067,31.5443653 C90.6100067,35.3406027 88.0592533,37.5752329 85.2017833,37.5752329 C82.3435433,37.5752329 79.7933033,35.3406027 79.7933033,31.5443653 L79.7933033,31.5443653 Z M96.31622,31.5136804 C96.31622,27.9930959 98.3441433,25.4825571 101.416957,25.4825571 C104.42894,25.4825571 106.364463,28.0544658 106.364463,31.5136804 C106.364463,34.9427215 104.42894,37.5752329 101.386157,37.5752329 C98.2828,37.5752329 96.31622,34.9427215 96.31622,31.5136804 L96.31622,31.5136804 Z M106.364463,36.5345023 C106.364463,37.6061735 106.426063,38.4633059 106.518207,38.830758 L108.3313,38.830758 C108.3005,38.6773333 108.177557,37.6061735 108.177557,36.0448219 L108.177557,16.7268676 L106.33392,16.7268676 L106.33392,26.9827945 C105.842147,25.75821 104.33654,23.8296621 101.232927,23.8296621 C97.1765667,23.8296621 94.4725833,27.2277626 94.4725833,31.5136804 C94.4725833,35.8302831 97.1149667,39.2286393 101.232927,39.2286393 C104.090653,39.2286393 105.719203,37.4223196 106.364463,35.9530228 L106.364463,36.5345023 Z M111.950813,38.8302466 L113.794707,38.8302466 L113.794707,24.2275434 L111.950813,24.2275434 L111.950813,38.8302466 Z M111.336353,18.1659909 C111.336353,19.0535525 112.01267,19.6964018 112.87276,19.6964018 C113.733363,19.6964018 114.409167,19.0535525 114.409167,18.1659909 C114.409167,17.2779178 113.733363,16.6350685 112.87276,16.6350685 C112.01267,16.6350685 111.336353,17.2779178 111.336353,18.1659909 L111.336353,18.1659909 Z M127.324377,36.7794703 C127.324377,37.7284018 127.385977,38.4939909 127.47812,38.830758 L129.229613,38.830758 C129.137213,38.187653 129.04507,37.1469224 129.04507,36.0448219 L129.04507,24.2275434 L127.201433,24.2275434 L127.201433,33.1361461 C127.201433,35.5853151 125.665027,37.5752329 123.05293,37.5752329 C120.19469,37.5752329 119.08897,35.4326575 119.08897,33.1059726 L119.08897,24.2275434 L117.245077,24.2275434 L117.245077,33.4117991 C117.245077,36.4733881 119.02737,39.2286393 122.7149,39.2286393 C125.05031,39.2286393 126.617517,38.0040548 127.324377,36.5651872 L127.324377,36.7794703 Z M134.640403,38.830758 L134.640403,29.8607854 C134.640403,27.4423014 136.26921,25.4521279 138.727563,25.4521279 C141.216717,25.4521279 142.476693,27.1663927 142.476693,29.3713607 L142.476693,38.830758 L144.320587,38.830758 L144.320587,29.8607854 C144.320587,27.4727306 145.94888,25.4521279 148.407233,25.4521279 C150.865587,25.4521279 152.156363,27.1663927 152.156363,29.3713607 L152.156363,38.830758 L154,38.830758 L154,29.1565662 C154,25.788895 151.787533,23.8296621 148.929807,23.8296621 C146.59414,23.8296621 144.781047,25.0238174 143.8899,27.1357078 C143.305983,25.0542466 141.58529,23.8296621 139.28068,23.8296621 C136.97607,23.8296621 135.254863,25.0849315 134.610117,26.6460274 L134.610117,24.2275434 L132.796767,24.2275434 L132.796767,38.830758 L134.640403,38.830758 Z" id="Fill-1"></path>
                </g>
            </g>
        </g>
    </g>
</svg>