<!-- <svg viewBox="0 0 24 24" fill="none" xmlns="http://www.w3.org/2000/svg" height="1em"><path fill-rule="evenodd" clip-rule="evenodd" d="M12 8c1.1 0 2-.9 2-2s-.9-2-2-2-2 .9-2 2 .9 2 2 2zm0 2c-1.1 0-2 .9-2 2s.9 2 2 2 2-.9 2-2-.9-2-2-2zm-2 8c0-1.1.9-2 2-2s2 .9 2 2-.9 2-2 2-2-.9-2-2z" fill="currentColor"></path></svg> -->
<svg xmlns="http://www.w3.org/2000/svg" viewBox="0 0 24 24" fill="currentColor" stroke="currentColor" stroke-width="2" stroke-linecap="round" stroke-linejoin="round">
  <polyline points="3 6 5 6 21 6"></polyline>
  <path d="M16.6 6H7.4C6.8 6 6.384 6.448 6.384 7.02V7.02C6.384 7.592 6.8 8.04 7.4 8.04H16.6C17.2 8.04 17.616 7.592 17.616 7.02V7.02C17.616 6.448 17.2 6 16.6 6V6Z"></path>
  <path d="M8 11V17"></path>
  <path d="M12 11V17"></path>
  <path d="M16 11V17"></path>
</svg>
